<svg xmlns="http://www.w3.org/2000/svg" width="30" height="30" viewBox="0 0 30 30">
  <path fill="#FFF" d="M6.23010204,14.267551 C6.23004408,13.9295545 6.36467843,13.6054685 6.60421366,13.3670057 C6.84374889,13.1285429 7.16843574,12.9953642 7.50642857,12.9969388 L9.62244898,13.0038776 C10.3250341,13.0038776 10.8945918,13.5734353 10.8945918,14.2760204 L10.8945918,22.277449 C11.1329592,22.2068367 11.4386735,22.1315306 11.7735714,22.0529592 C12.2523104,21.9402892 12.590688,21.5131451 12.5908163,21.0213265 L12.5908163,11.0962245 C12.5907893,10.7587771 12.7248138,10.4351399 12.963406,10.1965095 C13.2019982,9.95787898 13.5256138,9.82380257 13.8630612,9.82377551 L15.9832653,9.82377551 C16.6858037,9.82388819 17.2552955,10.3933799 17.2554082,11.0959184 L17.2554082,20.3080612 C17.2554082,20.3080612 17.7860204,20.0931633 18.3032653,19.874898 C18.6959154,19.708795 18.9511789,19.3239911 18.9515306,18.8976531 L18.9515306,7.91530612 C18.9515035,7.57792224 19.0855098,7.25434747 19.3240667,7.01577147 C19.5626235,6.77719547 19.8861875,6.64316326 20.2235714,6.64316327 L22.3437755,6.64316327 C23.0463771,6.64316326 23.6159641,7.21270452 23.6160204,7.91530612 L23.6160204,16.9586735 C25.4541837,15.6265306 27.3171429,14.0241837 28.7955102,12.097551 C29.2311677,11.5295174 29.3531989,10.7809697 29.1205102,10.1039796 C27.0709872,4.13099735 21.4914741,0.0883370666 15.1772449,0.00132653061 C6.86714286,-0.110306122 -0.000714285714,6.67326531 -4.05162706e-05,14.9843878 C-0.00805746274,17.6142996 0.678342787,20.1997406 1.98989796,22.4792857 C2.35916978,23.1158359 3.06375237,23.4808405 3.79673469,23.4153061 C4.19785714,23.38 4.6972449,23.330102 5.29091837,23.2604082 C5.82584831,23.1995338 6.23007219,22.7471578 6.23061224,22.2087755 L6.23061224,14.267551 M6.18387755,27.1 C10.7410049,30.4151211 16.7729361,30.8923781 21.7945928,28.3351391 C26.8162495,25.7779001 29.9779424,20.6188626 29.9770412,14.9835714 C29.9770412,14.6385714 29.9610204,14.297449 29.9379592,13.9581633 C24.4642857,22.1214286 14.3577551,25.9377551 6.18387755,27.1003061"/>
</svg>
