<svg xmlns="http://www.w3.org/2000/svg" width="30" height="30" viewBox="0 0 30 30">
  <path fill="#FFF" d="M15,0 C23.28555,0 30,6.71619 30,15 C30,23.28381 23.28381,30 15,30 C6.71619,30 0,23.28381 0,15 C0,6.71619 6.71619,0 15,0 Z M15.46962,6 C15.00111,6 14.622,6.38373 14.622,6.85686 L14.622,6.85686 L14.622,7.83699 L14.53416,7.81236 L14.29527,7.74453 L14.07798,7.68444 C14.07645,7.68444 14.07489,7.68288 14.07183,7.68288 L14.07183,7.68288 L14.06721,7.68288 L12.4182,7.23597 C12.34578,7.21593 12.28413,7.29453 12.32112,7.3608 L12.32112,7.3608 L12.58464,7.84779 C12.6093,7.90944 12.64476,7.97109 12.67557,8.03736 C12.71874,8.12364 12.76188,8.21457 12.80349,8.3055 C12.84048,8.38563 12.87747,8.46423 12.92061,8.55054 C13.00536,8.74011 13.09785,8.94045 13.18875,9.16083 C13.2504,9.30723 13.31205,9.45363 13.36599,9.60621 C13.51395,9.98994 13.65417,10.39986 13.77594,10.82061 C13.81908,10.95468 13.84989,11.08257 13.88688,11.21667 L13.88688,11.21667 L13.90383,11.29062 C13.95315,11.48637 13.99632,11.68053 14.02713,11.87625 C14.05179,12.01032 14.07489,12.13824 14.08722,12.26769 C14.10573,12.41409 14.12421,12.56052 14.13039,12.70692 C14.14272,12.84099 14.14887,12.98124 14.14887,13.11531 C14.14887,13.45743 14.11806,13.78722 14.04561,14.09853 C14.02095,14.18946 13.99632,14.28654 13.96548,14.37903 C13.93467,14.48844 13.8915,14.59785 13.84989,14.71497 C13.82523,14.78124 13.8006,14.84907 13.76976,14.91534 C13.61718,15.28212 13.42764,15.64737 13.23192,15.98949 C12.94527,16.49652 12.65709,16.9419 12.45519,17.22855 C12.42747,17.27016 12.40125,17.30712 12.37815,17.34258 C12.31497,17.43195 12.37968,17.55834 12.48909,17.55834 L12.48909,17.55834 L14.622,17.55834 L14.622,19.24278 L12.46443,19.24278 C11.88498,19.24278 11.34867,18.91452 11.08977,18.38898 C10.9557,18.12546 10.90329,17.83572 10.93413,17.55216 C10.94181,17.46741 10.87863,17.38728 10.79235,17.38728 L10.79235,17.38728 L6.43407,17.38728 C6.36009,17.38728 6.3,17.44737 6.3,17.52135 L6.3,17.52135 L6.3,17.61072 C6.3,20.39091 8.54541,22.644 11.3163,22.644 L11.3163,22.644 L19.13436,22.644 C21.00837,22.644 21.84672,20.46024 22.944,18.933 C23.37396,18.33504 24.40806,17.86038 24.7101,17.73093 C24.75942,17.70936 24.79332,17.66004 24.79332,17.60457 L24.79332,17.60457 L24.79332,16.6383 C24.79332,16.5489 24.70704,16.48419 24.62226,16.50885 L24.62226,16.50885 L20.05905,17.82804 C20.03439,17.83419 20.01279,17.84805 19.99584,17.86656 C19.49499,18.41982 19.07118,18.7866 18.9741,18.87135 C18.69054,19.11177 18.33915,19.24278 17.96928,19.24278 L17.96928,19.24278 L16.31721,19.24278 L16.31721,17.55834 L17.63025,17.55834 C17.66415,17.55834 17.69652,17.54601 17.72118,17.52444 L17.72118,17.52444 L17.89068,17.36877 C17.96313,17.3025 18.04944,17.22237 18.15267,17.11911 C18.21432,17.05746 18.28215,16.99119 18.34839,16.91724 C18.41622,16.85097 18.48249,16.77699 18.54411,16.70457 C18.64737,16.5936 18.74601,16.47801 18.84927,16.35627 C18.92325,16.27614 18.99105,16.18521 19.05732,16.09428 C19.1313,16.00797 19.20372,15.91089 19.27152,15.81843 C19.32084,15.74598 19.37631,15.672 19.43025,15.59343 C19.47957,15.51945 19.52889,15.44085 19.5705,15.36687 C19.69995,15.16653 19.80939,14.9523 19.90185,14.7381 C19.94961,14.63484 19.9866,14.52543 20.02359,14.42064 C20.06058,14.3112 20.09139,14.20797 20.11452,14.09853 C20.16999,13.84116 20.18232,13.58535 20.15766,13.32951 C20.15151,13.24938 20.14533,13.17078 20.12685,13.09683 L20.12685,13.09683 L20.12685,13.0845 C20.12067,13.03209 20.10834,12.97353 20.09139,12.91959 L20.0259267,12.6701011 C19.9758133,12.5040033 19.91314,12.33859 19.8402,12.17523 C19.80321,12.0843 19.76007,11.99184 19.71846,11.90709 C19.61982,11.7237 19.51656,11.54028 19.39944,11.36307 C19.35783,11.2968 19.30851,11.229 19.26537,11.16273 C19.17444,11.02248 19.06965,10.88841 18.97254,10.75896 C18.89859,10.66185 18.81381,10.56477 18.73368,10.46613 C18.65355,10.36905 18.57495,10.27659 18.49482,10.18566 C18.20817,9.86202 17.90766,9.56922 17.63949,9.31956 C17.59017,9.27024 17.53623,9.22092 17.48076,9.17316 C17.27271,8.98359 17.08314,8.81868 16.92441,8.69079 C16.84428,8.62914 16.77801,8.56902 16.71636,8.51973 C16.63776,8.46114 16.57614,8.41338 16.53297,8.38101 C16.52064,8.37177 16.50678,8.36562 16.49292,8.36097 L16.49292,8.36097 L16.31721,8.31168 L16.31721,6.85686 C16.31721,6.61953 16.22166,6.40686 16.06911,6.25119 C15.91653,6.09555 15.70386,6 15.46962,6 Z M11.60142,9.31491 C11.55828,9.21783 11.42421,9.20859 11.36718,9.29796 L11.36718,9.29796 L7.46508,15.4023 L7.40037,15.50403 C7.34334,15.59187 7.40652,15.70899 7.5144,15.70899 L7.5144,15.70899 L11.52744,15.70899 C11.57214,15.70899 11.61375,15.68742 11.63841,15.65043 C11.69082,15.5703 11.74014,15.48708 11.78481,15.4023 C12.13158,14.81976 12.4398,14.18946 12.5523,13.72404 C12.81582,12.59286 12.25332,10.77588 11.60142,9.31491 Z"/>
</svg>
