<svg xmlns="http://www.w3.org/2000/svg" width="712" height="371" viewBox="0 0 712 371">
  <g fill="none" fill-rule="evenodd" transform="translate(0 4)">
    <path fill="#FFF" fill-rule="nonzero" d="M30.9952069,129.376413 C43.2343357,129.376413 52.4136822,123.6099 56.8856716,115.372025 C57.2387234,120.90317 58.2978787,124.551372 59.7100859,127.964206 L65.4765985,127.964206 C63.6354988,121.750494 63.2570505,118.124551 63.2411397,110.045646 L63.2406038,39.4658903 L56.6503037,41.584201 L56.6503037,68.0630853 C50.5307393,63.9441478 42.9989678,62.5319406 33.9373052,62.5319406 C12.9895656,62.5319406 0.515068993,75.7125408 0.515068993,95.9541768 C0.515068993,117.0196 12.7541977,129.376413 30.9952069,129.376413 Z M31.5836266,122.903797 C17.1085032,122.903797 7.57610481,113.136031 7.57610481,95.9541768 C7.57610481,78.4192712 18.1676585,68.8868729 34.5257248,68.8868729 C43.8227553,68.8868729 50.4130554,70.6521318 56.6503037,75.1241212 L56.6503037,95.9541768 C56.6503037,111.723823 48.8831643,122.903797 31.5836266,122.903797 Z M88.418933,51.822703 L88.418933,40.8780975 L79.3572704,40.8780975 L79.3572704,51.822703 L88.418933,51.822703 Z M87.2420937,127.964206 L87.2420937,63.9441478 L80.6517936,63.9441478 L80.6517936,127.964206 L87.2420937,127.964206 Z M123.71808,129.376413 C139.840779,129.376413 148.431706,122.080009 148.431706,111.135404 C148.431706,98.3078554 138.07552,94.8950214 125.012603,91.8352392 C115.950941,89.7169285 107.595382,87.5986178 107.595382,79.3607426 C107.595382,73.0058104 113.597262,69.0045568 123.953448,69.0045568 C129.719961,69.0045568 136.780996,70.1813961 141.37067,73.2411783 L144.548136,67.7100336 C138.428572,63.8264639 130.543748,62.5319406 123.953448,62.5319406 C109.242957,62.5319406 100.534346,69.1222407 100.534346,79.3607426 C100.534346,91.7175553 111.832003,95.4834411 123.71808,98.3078554 L124.295694,98.4464595 C132.496176,100.419931 141.37067,102.856948 141.37067,111.135404 C141.37067,118.19644 135.604157,122.903797 123.71808,122.903797 C115.715573,122.903797 108.183801,120.90317 102.534973,116.666549 L99.1221388,122.315377 C105.477071,127.140418 114.774102,129.376413 123.71808,129.376413 Z M187.614423,129.376413 C199.853551,129.376413 206.914587,125.963579 213.269519,121.49159 L209.739001,115.960445 C203.619437,120.550118 197.382189,122.903797 189.615049,122.903797 C173.374667,122.903797 164.430688,111.723823 164.430688,95.9541768 C164.430688,80.1845302 173.374667,69.0045568 189.615049,69.0045568 C196.676085,69.0045568 202.79565,71.3582354 208.326794,75.4771729 L211.974996,69.8283443 C206.561535,65.5917228 199.500499,62.5319406 188.791262,62.5319406 C168.431942,62.5319406 157.369652,76.3009605 157.369652,95.9541768 C157.369652,116.313497 168.902678,129.376413 187.614423,129.376413 Z M249.745506,129.376413 C270.104826,129.376413 281.402483,116.078129 281.402483,95.9541768 C281.402483,75.8302247 270.104826,62.5319406 249.745506,62.5319406 C229.386186,62.5319406 218.088529,75.8302247 218.088529,95.9541768 C218.088529,116.078129 229.386186,129.376413 249.745506,129.376413 Z M249.745506,122.903797 C233.740491,122.903797 225.149564,112.194559 225.149564,95.9541768 C225.149564,79.7137944 233.740491,69.0045568 249.745506,69.0045568 C265.75052,69.0045568 274.341447,79.7137944 274.341447,95.9541768 C274.341447,112.194559 265.75052,122.903797 249.745506,122.903797 Z M320.702884,127.964206 L351.065338,63.9441478 L343.886618,63.9441478 L323.527298,107.13415 C321.644355,111.01772 319.761412,115.018973 317.87847,119.373279 C315.995527,115.018973 314.230268,111.135404 312.347325,107.251834 L291.988005,63.9441478 L284.809285,63.9441478 L315.171739,127.964206 L320.702884,127.964206 Z M387.305957,129.376413 C396.249935,129.376413 405.900018,126.90505 413.431789,121.962325 L410.372007,115.960445 C403.193287,121.020854 394.249308,122.903797 387.188273,122.903797 C370.359471,122.903797 362.356963,113.489082 361.415492,98.5432233 L416.491571,98.5432233 C416.609255,97.366384 416.609255,97.0133322 416.609255,95.9541768 C416.609255,76.3009605 405.07623,62.5319406 385.658382,62.5319406 C366.005165,62.5319406 354.47214,76.3009605 354.47214,95.9541768 C354.47214,115.607393 365.299062,129.376413 387.305957,129.376413 Z M409.430535,92.188291 L361.65086,92.188291 C363.063067,78.4192712 371.300942,69.0045568 385.658382,69.0045568 C399.427401,69.0045568 408.018328,78.4192712 409.430535,92.188291 Z M436.25644,127.964206 L436.25644,96.0718607 C436.25644,80.1845302 444.376631,69.5929764 458.73407,69.5929764 C460.734697,69.5929764 462.970692,69.8283443 464.265215,70.1813961 L464.265215,63.1203603 C463.20606,62.8849924 460.852381,62.5319406 458.73407,62.5319406 C448.613252,62.5319406 440.493061,66.1801425 436.138756,77.3601158 L435.66802,63.9441478 L429.66614,63.9441478 L429.66614,127.964206 L436.25644,127.964206 Z"/>
    <ellipse cx="510.515" cy="263.982" stroke="#FFF" stroke-width="3.579" rx="203.579" ry="92.17" transform="rotate(-13 510.515 263.982)"/>
    <path fill="#FFF" fill-rule="nonzero" d="M413.473334 297.609075C424.770991 297.609075 432.891182 295.608448 440.30527 291.254143L435.127177 279.015014C428.066141 282.427848 422.064261 283.722371 415.003225 283.722371 404.882407 283.722371 396.997583 279.603434 395.585376 269.953352L442.541264 269.953352C442.894316 267.481989 443.012 265.834414 443.012 263.245368 443.012 242.532996 432.067395 228.528608 411.237339 228.528608 389.348128 228.528608 378.050471 242.768364 378.050471 263.127684 378.050471 283.722371 389.70118 297.609075 413.473334 297.609075zM426.300882 258.420326L395.70306 258.420326C395.70306 248.534876 401.234205 242.415312 411.237339 242.415312 421.240473 242.415312 426.300882 248.299508 426.300882 258.420326zM514.087062 297.609075C518.794419 297.609075 524.20788 295.608448 526.561559 292.901718L526.561559 279.250382C523.972512 281.486377 522.089569 282.310164 519.971259 282.310164 516.676109 282.310164 514.557798 280.897957 514.557798 275.837548L514.557798 229.940815 502.907089 229.940815 501.259514 233.589017C495.728369 230.411551 489.138069 228.528608 481.606297 228.528608 461.953081 228.528608 448.419429 241.238473 448.419429 263.480735 448.419429 285.016895 459.128667 297.609075 478.075779 297.609075 488.549649 297.609075 494.904581 292.66635 498.552783 286.66447 500.906462 294.431609 507.379078 297.609075 514.087062 297.609075zM482.194717 282.427848C471.367795 282.427848 466.307386 275.484496 466.307386 263.480735 466.307386 251.476975 471.603163 243.356783 483.371556 243.356783 488.785017 243.356783 493.492374 244.415939 497.493628 246.651933L497.493628 265.363678C497.493628 274.660709 492.550903 282.427848 482.194717 282.427848zM549.268525 296.196868L549.268525 263.480735C549.268525 251.359291 554.917354 244.768991 564.68512 244.768991 566.568063 244.768991 569.863213 245.004358 573.393731 246.181198L573.393731 229.587764C571.393104 228.763976 568.686374 228.410924 566.803431 228.410924 559.036292 228.410924 552.09294 232.412178 547.974002 241.003105L546.444111 229.940815 532.204356 229.940815 532.204356 296.196868 549.268525 296.196868zM597.277537 296.196868L597.277537 260.774005C597.277537 249.005612 602.45563 243.827519 612.223396 243.827519 620.225903 243.827519 624.697893 248.181824 624.697893 256.890435L624.697893 296.196868 641.879747 296.196868 641.879747 256.890435C641.879747 237.825639 632.582716 228.528608 617.519173 228.528608 607.398355 228.528608 600.337319 232.882914 596.100698 241.003105L594.570807 229.940815 580.213367 229.940815 580.213367 296.196868 597.277537 296.196868zM184.612895 208.783103C195.910552 208.783103 205.207583 203.60501 207.325894 191.954301 209.32652 180.53896 200.735594 176.537706 192.380035 173.124872 185.554367 170.418142 180.964693 168.535199 182.141533 161.827215 183.318372 155.472283 188.496465 151.706397 196.263604 151.706397 200.147174 151.706397 202.73622 152.530185 205.207583 153.707024L205.913686 164.886997 207.325894 164.886997 211.680199 151.235661C208.385049 149.235035 202.853904 147.352092 195.910552 147.352092 185.907418 147.352092 176.845756 152.647869 174.962813 163.121738 173.197554 173.242556 180.25859 176.890758 188.025729 180.185908 195.557501 183.24569 201.206329 185.717053 199.911806 193.366508 198.499599 201.369016 192.144667 204.428798 184.024475 204.428798 180.25859 204.428798 176.845756 203.840378 173.903657 202.545855L173.550606 189.953674 172.020715 189.953674 167.431041 204.428798C170.137772 207.135528 177.434175 208.783103 184.612895 208.783103zM265.697123 208.783103C271.110584 208.783103 275.817941 203.722694 280.407614 198.073866L278.995407 197.01471C276.053309 200.89828 272.287423 204.075746 269.816061 204.075746 267.344698 204.075746 266.285543 203.134275 267.580066 195.602503L275.935625 148.764299 267.933118 148.764299 260.283662 191.718933 259.342191 192.895773C253.104943 200.427544 247.220746 203.369642 242.042653 203.369642 235.334669 203.369642 231.921835 198.897653 233.804778 187.835364L238.629819 160.415008C240.277394 151.471029 237.806032 147.58746 232.510255 147.58746 227.096794 147.58746 222.389437 152.647869 217.917447 158.296697L219.211971 159.355853C222.271753 155.472283 225.919955 152.294817 228.391317 152.294817 230.744996 152.294817 231.921835 153.353972 230.627312 160.885744L225.566903 189.012203C223.09554 203.487326 229.568156 208.783103 238.394451 208.783103 246.279275 208.783103 254.164098 204.075746 259.106823 198.19155L259.224507 197.956182C258.165352 205.605637 260.754398 208.783103 265.697123 208.783103zM303.826716 234.673568L304.062084 233.143677 295.941893 230.319263 300.296199 205.958689C304.179768 207.606264 308.41639 208.783103 313.123747 208.783103 328.069606 208.783103 339.367263 198.426917 343.015465 177.596862 346.781351 156.413754 339.602631 147.58746 328.658026 147.58746 320.890886 147.58746 314.535954 151.706397 308.534074 158.414381 309.357861 150.88261 306.886499 147.58746 302.061457 147.58746 296.647997 147.58746 291.940639 152.647869 287.46865 158.296697L288.763173 159.355853C291.940639 155.472283 295.588841 152.294817 297.94252 152.294817 300.296199 152.294817 301.355354 153.353972 300.296199 160.061956L287.821702 230.319263 278.877723 233.143677 278.760039 234.673568 303.826716 234.673568zM312.888379 204.546482C308.181022 204.546482 304.179768 203.251959 301.23767 200.780596L307.82797 163.121738C313.359115 157.237542 318.184156 153.00092 324.774456 153.00092 333.365383 153.00092 337.366637 160.17964 334.18917 177.714546 331.011704 195.720187 323.597617 204.546482 312.888379 204.546482zM368.082142 234.673568L368.31751 233.143677 360.197319 230.319263 364.551624 205.958689C368.435194 207.606264 372.671816 208.783103 377.379173 208.783103 392.325032 208.783103 403.622689 198.426917 407.270891 177.596862 411.036777 156.413754 403.858057 147.58746 392.913452 147.58746 385.146312 147.58746 378.79138 151.706397 372.7895 158.414381 373.613287 150.88261 371.141924 147.58746 366.316883 147.58746 360.903423 147.58746 356.196065 152.647869 351.724076 158.296697L353.018599 159.355853C356.196065 155.472283 359.844267 152.294817 362.197946 152.294817 364.551624 152.294817 365.61078 153.353972 364.551624 160.061956L352.077128 230.319263 343.133149 233.143677 343.015465 234.673568 368.082142 234.673568zM377.143805 204.546482C372.436448 204.546482 368.435194 203.251959 365.493096 200.780596L372.083396 163.121738C377.614541 157.237542 382.439582 153.00092 389.029882 153.00092 397.620809 153.00092 401.622062 160.17964 398.444596 177.714546 395.26713 195.720187 387.853043 204.546482 377.143805 204.546482zM438.339449 208.783103C453.167624 208.783103 465.053701 198.662285 468.348851 179.832856 471.879369 159.826588 463.876861 147.58746 447.636479 147.58746 432.455252 147.58746 420.804543 158.767433 417.391709 177.596862 413.861191 197.838498 422.334434 208.783103 438.339449 208.783103zM438.221765 204.899534C428.100947 204.899534 423.158222 195.955555 426.218004 178.302965 428.924734 163.121738 436.103454 151.471029 447.636479 151.471029 460.110976 151.471029 462.34697 163.239422 459.64024 178.773701 456.580458 196.190923 448.813318 204.899534 438.221765 204.899534zM489.767326 207.606264L496.710678 167.94678 499.182041 165.004681C503.65403 159.826588 511.774221 155.001547 517.658418 155.001547L520.247464 155.001547 521.659671 147.234408 519.54136 147.234408C511.891905 147.234408 505.536973 153.353972 497.534466 163.121738L498.005201 160.415008C499.652776 151.471029 497.06373 147.58746 491.767953 147.58746 486.354492 147.58746 481.647135 152.647869 477.175146 158.296697L478.469669 159.355853C481.647135 155.472283 485.295337 152.294817 487.649015 152.294817 489.88501 152.294817 490.944165 153.236288 490.120378 159.355853L481.647135 207.606264 489.767326 207.606264zM537.311634 208.783103C546.137929 208.783103 551.551389 200.89828 552.845913 193.484192L550.609918 193.484192C549.197711 199.721441 545.196457 203.722694 540.606784 203.722694 535.899427 203.722694 533.31038 200.30986 534.957955 191.248198L541.665939 152.883236 558.14169 152.883236 558.965477 148.764299 542.489727 148.764299 545.784877 129.699502 543.78425 129.699502 534.369536 148.764299 525.660925 148.764299 524.837137 152.883236 533.545748 152.883236 526.837764 191.365882C525.072505 201.015964 527.073132 208.783103 537.311634 208.783103z"/>
    <path stroke="#FFF" stroke-width="3.579" d="M487.708282,32.5799967 C493.972264,38.7161424 500.236246,41.7842153 506.500228,41.7842153 C512.764211,41.7842153 519.028193,38.7161424 525.292175,32.5799967 C519.156029,38.8439788 516.087956,45.1079609 516.087956,51.371943 C516.087956,57.6359251 519.156029,63.8999072 525.292175,70.1638893 C519.028193,64.0277436 512.764211,60.9596707 506.500228,60.9596707 C500.236246,60.9596707 493.972264,64.0277436 487.708282,70.1638893 C493.844428,63.8999072 496.912501,57.6359251 496.912501,51.371943 C496.912501,45.1079609 493.844428,38.8439788 487.708282,32.5799967 Z" transform="rotate(-20 506.5 51.372)"/>
    <path stroke="#FFF" stroke-width="3.579" d="M125.279642,219.239374 C131.543624,225.375519 137.807606,228.443592 144.071588,228.443592 C150.33557,228.443592 156.599553,225.375519 162.863535,219.239374 C156.727389,225.503356 153.659316,231.767338 153.659316,238.03132 C153.659316,244.295302 156.727389,250.559284 162.863535,256.823266 C156.599553,250.68712 150.33557,247.619048 144.071588,247.619048 C137.807606,247.619048 131.543624,250.68712 125.279642,256.823266 C131.415788,250.559284 134.483861,244.295302 134.483861,238.03132 C134.483861,231.767338 131.415788,225.503356 125.279642,219.239374 Z" transform="rotate(120 144.072 238.031)"/>
    <path stroke="#FFF" stroke-width="3.579" d="M67.3436706,158.331599 C78.059024,153.502187 94.5252505,152.997935 94.5252505,137.186035 C94.5252505,121.374135 85.5186175,106.487696 101.959965,93.9597315 C118.401312,81.4317673 138.29912,101.756509 157.541734,81.4317673 C176.784347,61.1070259 152.752412,48.7047031 169.741864,27.2860656 C181.068166,13.0069739 187.960714,4.3467921 190.419508,1.30552015 L190.419508,17.9321933 L190.419508,0.528845532 L175.195227,7.84384095"/>
  </g>
</svg>
