<svg xmlns="http://www.w3.org/2000/svg" width="37" height="30" viewBox="0 0 37 30">
  <path fill="#FFF" d="M36.9150653,3.55123585 C35.5569565,4.15369012 34.0971484,4.56067935 32.5653548,4.74377877 C34.1288965,3.80650141 35.3299285,2.32233005 35.8952838,0.553727917 C34.4317842,1.42178579 32.8110249,2.05192656 31.0857982,2.39154738 C29.7044326,0.919556534 27.7361188,-2.84217094e-14 25.5577572,-2.84217094e-14 C21.3752743,-2.84217094e-14 17.9840661,3.39083795 17.9840661,7.57332306 C17.9840661,8.166918 18.0510665,8.74500909 18.1802694,9.29929018 C11.88587,8.98348151 6.30541121,5.96825275 2.5699696,1.38616333 C1.91804855,2.50469119 1.54446694,3.80558018 1.54446694,5.19359028 C1.54446694,7.821208 2.88153371,10.1392935 4.91370972,11.4974001 C3.67225534,11.4580863 2.50444581,11.1173591 1.48337282,10.5501592 C1.48251185,10.5817201 1.48251185,10.613466 1.48251185,10.6453992 C1.48251185,14.3147639 4.09315132,17.3755808 7.55781923,18.0718007 C6.9223254,18.2449322 6.25323885,18.3374043 5.56255497,18.3374043 C5.0745381,18.3374043 4.60018046,18.2897843 4.13763311,18.2015568 C5.10148633,21.210324 7.89836128,23.3999448 11.2126013,23.4608538 C8.62060601,25.4922937 5.35509453,26.7031106 1.80662668,26.7031106 C1.19531092,26.7031106 0.592488591,26.667118 8.81072992e-13,26.5971623 C3.35170921,28.7461779 7.33263581,30 11.6096227,30 C25.5400988,30 33.1580888,18.4597798 33.1580888,8.45134877 C33.1580888,8.12298938 33.150706,7.7964746 33.1361256,7.47143854 C34.6156821,6.40385187 35.8995907,5.07010628 36.9150653,3.55123585 L36.9150653,3.55123585 Z"/>
</svg>
