<svg xmlns="http://www.w3.org/2000/svg" width="685" height="116" viewBox="0 0 685 116">
  <defs>
    <linearGradient id="wordmark-a" x1="50%" x2="50%" y1="29.525%" y2="100%">
      <stop offset="0%" stop-color="#FFF"/>
      <stop offset="34.526%" stop-color="#FFF" stop-opacity=".818"/>
      <stop offset="100%" stop-color="#FFF" stop-opacity="0"/>
    </linearGradient>
  </defs>
  <g fill="none" fill-rule="evenodd" transform="translate(-1)">
    <path fill="#FFF" fill-rule="nonzero" d="M131.247712,115.467353 L131.247712,89.5595304 C135.850625,90.3486011 140.848073,90.7431365 146.371568,90.7431365 C169.123108,90.7431365 184.378476,75.224745 184.378476,49.7114574 C184.378476,29.064106 172.93695,12.8881556 154.788323,12.8881556 C145.319474,12.8881556 136.902719,17.5787429 129.538059,26.9599174 L127.302358,14.4662971 L109.022219,14.4662971 L109.022219,115.467353 L131.247712,115.467353 Z M142.426214,73.5150917 C138.349349,73.5150917 134.667019,72.9890446 131.247712,71.8054384 L131.247712,46.5551744 C131.247712,39.190514 135.193066,31.2998065 144.924939,31.2998065 C157.550071,31.2998065 161.100889,39.0590022 161.100889,49.8429692 C161.100889,63.257172 155.840417,73.5150917 142.426214,73.5150917 Z M212.571542,89.164995 L212.571542,52.7362286 C212.571542,38.6644668 218.621084,32.877948 229.27354,32.877948 C231.903775,32.877948 235.19157,33.4039952 238.479365,34.5876013 L238.479365,14.2032735 C236.375176,13.282691 233.218893,12.7566438 230.457146,12.7566438 C222.171903,12.7566438 214.412707,18.2801391 210.730377,26.4338702 L208.626188,14.4662971 L190.346049,14.4662971 L190.346049,89.164995 L212.571542,89.164995 Z M282.982445,90.7431365 C309.284804,90.7431365 323.225053,76.4083512 323.225053,51.815646 C323.225053,27.2229409 309.284804,12.8881556 282.982445,12.8881556 C256.548575,12.8881556 242.739837,27.2229409 242.739837,51.815646 C242.739837,76.4083512 256.548575,90.7431365 282.982445,90.7431365 Z M282.982445,72.3314856 C271.540919,72.3314856 266.017424,66.2819432 266.017424,51.815646 C266.017424,37.3493489 271.540919,31.2998065 282.982445,31.2998065 C294.423971,31.2998065 299.947466,37.3493489 299.947466,51.815646 C299.947466,66.2819432 294.423971,72.3314856 282.982445,72.3314856 Z M356.494985,90.7431365 C377.799895,90.7431365 387.400256,80.3537049 387.400256,67.9915965 C387.400256,52.0786696 376.090242,47.0812215 359.651268,41.8207499 C353.338702,39.848073 350.839978,38.1384197 350.839978,35.2451603 C350.839978,32.6149244 353.470214,30.9052711 358.862197,30.9052711 C363.070575,30.9052711 369.514652,31.6943419 377.931407,34.5876013 L384.112461,18.5431627 C374.775124,14.0717617 367.14744,12.8881556 356.626497,12.8881556 C337.951822,12.8881556 328.21995,22.2254928 328.21995,36.69179 C328.21995,51.815646 340.056011,56.6815824 354.390796,61.0214715 C360.966386,62.9941484 364.780228,64.9668252 364.780228,67.9915965 C364.780228,71.1478795 361.755457,72.3314856 354.785332,72.3314856 C351.234513,72.3314856 340.582058,71.2793913 333.874957,66.6764785 L326.115761,81.8003346 C335.321586,88.9019714 346.763112,90.7431365 356.494985,90.7431365 Z M417.987857,115.467353 L417.987857,89.5595304 C422.59077,90.3486011 427.588218,90.7431365 433.111713,90.7431365 C455.863253,90.7431365 471.118621,75.224745 471.118621,49.7114574 C471.118621,29.064106 459.677095,12.8881556 441.528468,12.8881556 C427.325195,12.8881556 419.960534,19.3322334 416.278204,26.9599174 L414.042504,14.4662971 L395.762364,14.4662971 L395.762364,115.467353 L417.987857,115.467353 Z M429.16636,73.5150917 C425.089494,73.5150917 421.407164,72.9890446 417.987857,71.8054384 L417.987857,46.5551744 C417.987857,39.190514 421.933211,31.2998065 431.665084,31.2998065 C444.290216,31.2998065 447.841034,39.0590022 447.841034,49.8429692 C447.841034,63.257172 442.580562,73.5150917 429.16636,73.5150917 Z M519.777984,90.7431365 C532.008581,90.7431365 541.082895,88.9019714 549.762673,84.2990587 L544.239178,69.569738 C535.953935,73.1205564 528.194739,74.0411389 522.145197,74.0411389 C510.703671,74.0411389 502.812963,70.4903205 500.840286,60.1008889 L552.392909,60.1008889 C552.787444,57.0761177 552.918956,55.4979762 552.918956,52.0786696 C552.918956,28.5380589 540.425336,12.8881556 516.753213,12.8881556 C490.713878,12.8881556 479.009329,28.5380589 479.009329,51.815646 C479.009329,75.0932332 491.371437,90.7431365 519.777984,90.7431365 Z M531.877069,47.2127333 L500.840286,47.2127333 C500.840286,36.2972546 505.969246,29.5901532 516.753213,29.5901532 C526.616598,29.5901532 531.877069,36.034231 531.877069,47.2127333 Z M598.816571,90.7431365 C608.416932,90.7431365 618.017293,88.3759242 626.302536,82.9839408 L619.069387,67.8600847 C613.019845,71.8054384 608.679956,72.8575328 601.709831,72.8575328 C588.032604,72.8575328 584.087251,63.1256602 584.087251,51.815646 C584.087251,40.5056319 588.032604,31.1682947 601.709831,31.1682947 C609.206003,31.1682947 612.493798,31.9573655 618.411828,35.376672 L625.513465,20.252816 C615.650081,14.3347853 606.838791,12.8881556 600.131689,12.8881556 C573.04026,12.8881556 560.809663,28.5380589 560.809663,51.815646 C560.809663,74.5671861 572.777237,90.7431365 598.816571,90.7431365 Z M667.465727,90.7431365 C673.515269,90.7431365 679.564812,89.164995 684.167724,87.0608063 L684.167724,70.4903205 C680.616906,71.9369502 677.329111,72.726021 673.252246,72.726021 C668.254798,72.726021 663.783397,70.6218323 663.783397,60.8899597 L663.783397,31.9573655 L685.482842,31.9573655 L685.482842,14.4662971 L663.783397,14.4662971 L663.783397,0 L647.212911,0 L641.557904,14.4662971 L632.089055,19.0692098 L632.089055,31.9573655 L641.557904,31.9573655 L641.557904,60.8899597 C641.557904,85.8772002 653.130941,90.7431365 667.465727,90.7431365 Z"/>
    <path fill="url(#wordmark-a)" d="M23.1013466,20.164995 L43,20.164995 L62.8986534,20.164995 C63.9265621,20.164995 64.9150186,20.5607103 65.6589547,21.2700448 L83.2080844,38.0029359 C84.7661112,39.4884964 84.86897,41.9406916 83.4408227,43.5515089 L45.9930396,85.7891247 C44.5274842,87.4421348 41.9993874,87.5940969 40.3463772,86.1285416 C40.2265457,86.0222992 40.1132027,85.9089562 40.0069604,85.7891247 L2.55917728,43.5515089 C1.13102996,41.9406916 1.2338888,39.4884964 2.79191557,38.0029359 L20.3410453,21.2700448 C21.0849814,20.5607103 22.0734379,20.164995 23.1013466,20.164995 Z"/>
  </g>
</svg>
